# xmcd
#
# Track frame offsets:
#	150
#	16914
#	34433
#	50345
#	72489
#	92125
#	114986
#	133831
#	148330
#	165451
#	184065
#	200563
#	212341
#	228641
#	243546
#	264769
#	283563
#	302537
#	318002
#	330346
#
# Disc length: 4661 seconds
#
# Revision: 1
# Processed by: cddbd v1.4PL0 Copyright (c) Steve Scherf et al.
# Submitted via: audiograbber 1.81.02
#
DISCID=1c123314
DTITLE=Julio Iglesias - Greatest Hits
DYEAR=1900
DGENRE=
TTITLE0=La Gota Fria
TTITLE1=Baila Morena
TTITLE2=Viver a Vida
TTITLE3=A Estrada
TTITLE4=Aqua Doce, Aqua do Mar
TTITLE5=Mal Acostumabal
TTITLE6=Rumbas (Medley)
TTITLE7=Vuela Alto
TTITLE8=Gozar la Vida
TTITLE9=Nohne de Cuatro Lunas
TTITLE10=La Empalisada
TTITLE11=La Compasita
TTITLE12=To All The Girls I've Love Before
TTITLE13=Crazy
TTITLE14=Bamboleo
TTITLE15=Milonga
TTITLE16=Quireme Mucho
TTITLE17=De Domingo a Domingo
TTITLE18=Mal De Amores
TTITLE19=Me Siento De Agui
EXTD=
EXTT0=
EXTT1=
EXTT2=
EXTT3=
EXTT4=
EXTT5=
EXTT6=
EXTT7=
EXTT8=
EXTT9=
EXTT10=
EXTT11=
EXTT12=
EXTT13=
EXTT14=
EXTT15=
EXTT16=
EXTT17=
EXTT18=
EXTT19=
PLAYORDER=
